HIERARCHY
ROOT Hip
{
  OFFSET 0.0 0.0 0.0
  CHANNELS 6 Xposition Yposition Zposition Xrotation Yrotation Zrotation
  JOINT LowerSpine
  {
    OFFSET 0.0 0.061367 -0.03653
    CHANNELS 3 Xrotation Yrotation Zrotation
    JOINT MiddleSpine
    {
      OFFSET 0.0 0.056002 0.002633
      CHANNELS 3 Xrotation Yrotation Zrotation
      JOINT Chest
      {
        OFFSET 0.0 0.069296 -0.013882
        CHANNELS 3 Xrotation Yrotation Zrotation
        JOINT Neck
        {
          OFFSET 0.0 0.156156 -0.002923
          CHANNELS 3 Xrotation Yrotation Zrotation
          JOINT Head
          {
            OFFSET 0.0 0.088183 0.023986
            CHANNELS 3 Xrotation Yrotation Zrotation
            End Site
            {
              OFFSET 1e-06 0.123215 0.003678
            }
          }
        }
        JOINT LClavicle
        {
          OFFSET 0.014189 0.150698 0.046467
          CHANNELS 3 Xrotation Yrotation Zrotation
          JOINT LShoulder
          {
            OFFSET 0.082893 0.021616 -0.034976
            CHANNELS 3 Xrotation Yrotation Zrotation
            JOINT LForearm
            {
              OFFSET 0.195645 -0.000695 -0.001695
              CHANNELS 3 Xrotation Yrotation Zrotation
              JOINT LHand
              {
                OFFSET 0.163209 0.000474 -0.000977
                CHANNELS 3 Xrotation Yrotation Zrotation
                End Site
                {
                  OFFSET 0.0 0.006864 0.0
                }
              }
            }
          }
        }
        JOINT RClavicle
        {
          OFFSET -0.014189 0.150698 0.046467
          CHANNELS 3 Xrotation Yrotation Zrotation
          JOINT RShoulder
          {
            OFFSET -0.082908 0.021619 -0.034982
            CHANNELS 3 Xrotation Yrotation Zrotation
            JOINT RForearm
            {
              OFFSET -0.195645 -0.000695 -0.001695
              CHANNELS 3 Xrotation Yrotation Zrotation
              JOINT RHand
              {
                OFFSET -0.163209 0.000474 -0.000977
                CHANNELS 3 Xrotation Yrotation Zrotation
                End Site
                {
                  OFFSET 0.0 0.006864 0.0
                }
              }
            }
          }
        }
      }
    }
  }
  JOINT RThigh
  {
    OFFSET -0.072558 0.02774 -0.005953
    CHANNELS 3 Xrotation Yrotation Zrotation
    JOINT RShin
    {
      OFFSET -0.005253 -0.285537 0.0
      CHANNELS 3 Xrotation Yrotation Zrotation
      JOINT RFoot
      {
        OFFSET 0.0 -0.28038 0.0
        CHANNELS 3 Xrotation Yrotation Zrotation
        JOINT RToe
        {
          OFFSET 0.0 -0.030816 0.064441
          CHANNELS 3 Xrotation Yrotation Zrotation
          End Site
          {
            OFFSET 0.0 0.0 0.043231
          }
        }
      }
    }
  }
  JOINT LThigh
  {
    OFFSET 0.072557 0.027741 -0.005953
    CHANNELS 3 Xrotation Yrotation Zrotation
    JOINT LShin
    {
      OFFSET 0.005253 -0.285539 0.0
      CHANNELS 3 Xrotation Yrotation Zrotation
      JOINT LFoot
      {
        OFFSET 0.0 -0.28038 0.0
        CHANNELS 3 Xrotation Yrotation Zrotation
        JOINT LToe
        {
          OFFSET 0.0 -0.030816 0.064441
          CHANNELS 3 Xrotation Yrotation Zrotation
          End Site
          {
            OFFSET 0.0 0.0 0.043231
          }
        }
      }
    }
  }
}
MOTION
Frames: 10
Frame Time: 0.03333333333333333
0.051658 0.595904 0.013818 1.265664 -1.804398 -3.407542 -1.633587 -0.340783 1.015457 0.524876 0.664803 1.784706 0.226244 2.340014 5.982595 -1.723486 -0.014931 0.116559 0.015383 -0.167386 -0.021442 -1.177813 -2.071472 -25.224888 11.637892 -18.594025 -73.508896 2.944416 -19.687874 -2.089056 0.072333 0.099487 -0.130083 0.891182 -2.116881 11.941303 -31.397072 7.783295 42.901749 123.077003 85.621086 -165.496094 -0.184048 -0.098447 -0.058278 1.6219 -2.377134 1.477449 -0.134897 -1.5471 -2.598244 -2.369412 0.587021 -0.045198 -0.1054 0.103165 0.091777 5.155276 0.780908 -5.415123 0.725286 1.082006 2.560873 -4.706298 4.185871 2.585427 0.06739 -0.144616 -0.066269 
0.048509 0.595845 0.015699 1.525863 -1.789315 -3.380535 -1.552164 -0.324668 0.939938 0.444247 0.657422 1.760183 0.295872 2.334347 6.268263 -1.592116 -0.018998 0.103585 0.01296 -0.156933 -0.016478 -1.052953 -1.907815 -24.863216 11.622561 -18.062479 -73.611572 2.858193 -20.114994 -1.929376 0.066267 0.090105 -0.124735 0.90039 -2.117665 12.202291 -29.690033 6.141378 43.722351 110.98024 87.240257 -153.734634 -0.175914 -0.085512 -0.055402 1.439783 -2.656351 1.712219 -0.007388 -1.768247 -2.480434 -2.210472 0.630541 0.023967 -0.098193 0.096959 0.089739 4.802788 0.627348 -5.227221 0.759792 1.078193 2.680184 -4.594823 4.136739 2.521488 0.058661 -0.135381 -0.064901 
0.045055 0.595192 0.017356 1.805756 -1.827992 -3.350454 -1.473448 -0.316698 0.857268 0.340919 0.643215 1.732119 0.360376 2.329762 6.509631 -1.474664 -0.027206 0.098355 0.011441 -0.147517 -0.012006 -0.908969 -1.755621 -24.435274 11.598524 -17.879684 -73.645996 2.955548 -20.576941 -1.797865 0.062428 0.083246 -0.121974 0.897693 -2.096275 12.433205 -28.31818 5.010082 44.583511 57.760082 88.622284 -100.760101 -0.166924 -0.073102 -0.052323 1.200437 -2.852273 1.931382 0.135972 -1.913317 -2.362817 -2.120238 0.674066 0.079537 -0.090113 0.098513 0.089124 4.474524 0.54102 -4.977633 0.815492 1.123255 2.763924 -4.523196 4.085777 2.444283 0.051111 -0.126347 -0.062616 
0.041518 0.594254 0.019001 2.059544 -1.8541 -3.334354 -1.387035 -0.308132 0.774286 0.242491 0.633973 1.70029 0.42224 2.282991 6.689877 -1.350955 -0.025567 0.094539 0.010841 -0.140118 -0.008707 -0.758123 -1.596405 -24.025343 11.539974 -17.881878 -73.586922 3.047961 -21.000456 -1.619467 0.059583 0.077865 -0.119199 0.897346 -2.099978 12.619633 -26.857407 4.028402 45.436436 -2.23166 87.700752 -40.824974 -0.162316 -0.061854 -0.049464 0.921142 -3.085767 2.131201 0.326824 -2.097402 -2.232711 -2.021815 0.720499 0.131705 -0.0827 0.098478 0.088568 4.139181 0.475138 -4.726431 0.916663 1.18424 2.824696 -4.453021 4.022961 2.368556 0.044919 -0.11785 -0.059903 
0.03813 0.592479 0.020228 2.254184 -1.774042 -3.289311 -1.299157 -0.317066 0.694568 0.183706 0.618236 1.666184 0.377237 2.223996 6.781988 -1.237425 -0.025711 0.085931 0.009175 -0.12615 -0.008574 -0.64335 -1.47645 -23.689129 11.413651 -17.947865 -73.451523 3.060146 -21.211926 -1.579439 0.054981 0.071311 -0.112281 0.901335 -2.123683 12.702125 -25.756752 3.556365 46.220985 -17.959236 86.426971 -24.882973 -0.142611 -0.061956 -0.04496 0.775412 -3.322499 2.267327 0.38016 -2.263496 -2.081611 -2.054527 0.762135 0.163961 -0.074354 0.102128 0.085943 3.846237 0.382565 -4.537995 1.01666 1.200253 2.872782 -4.36044 3.936159 2.302919 0.038982 -0.108703 -0.055302 
0.035045 0.591024 0.021328 2.424144 -1.734635 -3.247244 -1.2216 -0.329424 0.619481 0.139674 0.603955 1.627236 0.327323 2.17293 6.809675 -1.138738 -0.027045 0.078504 0.007508 -0.108906 -0.00804 -0.537965 -1.359581 -23.380497 11.279007 -18.032061 -73.270363 3.001485 -21.336422 -1.618235 0.049352 0.063729 -0.103803 0.919225 -2.123147 12.778664 -24.734348 3.224696 47.027199 -25.451653 85.107399 -17.044552 -0.120838 -0.063385 -0.040191 0.614323 -3.490337 2.370805 0.451023 -2.374168 -1.95621 -2.128821 0.790793 0.189208 -0.065275 0.1062 0.082921 3.597982 0.335655 -4.364191 1.09541 1.233606 2.92264 -4.29159 3.857987 2.242726 0.031668 -0.098962 -0.050241 
0.032268 0.589996 0.021986 2.5777 -1.74087 -3.205977 -1.155607 -0.341838 0.554385 0.109352 0.598492 1.603902 0.258121 2.172593 6.788732 -1.071398 -0.026417 0.069506 0.007053 -0.097643 -0.008884 -0.438214 -1.268383 -23.065222 11.126404 -18.226007 -73.049019 2.995927 -21.380213 -1.639128 0.04686 0.060256 -0.099439 0.927817 -2.091893 12.812909 -23.867737 3.200694 47.66584 -29.721544 83.500076 -12.323081 -0.102413 -0.068122 -0.036373 0.433397 -3.556738 2.434491 0.540171 -2.43607 -1.850676 -2.185339 0.819526 0.204459 -0.059075 0.116238 0.082734 3.412546 0.345039 -4.16663 1.152156 1.290339 2.933805 -4.244402 3.775484 2.192681 0.027689 -0.093827 -0.046356 
0.029712 0.589252 0.022311 2.734004 -1.716101 -3.160332 -1.111405 -0.353843 0.507302 0.093264 0.606254 1.589475 0.171145 2.195666 6.681767 -1.006762 -0.01801 0.061023 0.007495 -0.095449 -0.009359 -0.357654 -1.193352 -22.790335 11.023788 -18.498466 -72.79129 2.9912 -21.390862 -1.623384 0.046773 0.059099 -0.096868 0.925389 -2.056482 12.826616 -23.110256 3.31433 48.229984 -31.276871 82.259323 -10.346905 -0.090989 -0.072801 -0.033816 0.210642 -3.619563 2.48281 0.647666 -2.510895 -1.789019 -2.202451 0.838961 0.211895 -0.057201 0.122259 0.083597 3.235889 0.402213 -3.958304 1.20614 1.36482 2.906001 -4.198878 3.714241 2.16334 0.026669 -0.090543 -0.043321 
0.027643 0.588878 0.022515 2.86934 -1.671741 -3.131999 -1.079907 -0.364817 0.473301 0.084434 0.617165 1.579098 0.110249 2.229419 6.578824 -0.957531 -0.010748 0.054985 0.007837 -0.093289 -0.009576 -0.292699 -1.136017 -22.587744 10.928299 -18.755648 -72.553963 2.99402 -21.368559 -1.618655 0.046811 0.058161 -0.094777 0.922769 -2.030329 12.843678 -22.471571 3.440778 48.705811 -31.869734 81.486313 -9.365567 -0.082111 -0.076136 -0.031745 0.012417 -3.660559 2.492258 0.739668 -2.575933 -1.744612 -2.217592 0.846953 0.214684 -0.055705 0.127228 0.084415 3.087656 0.474273 -3.787691 1.244977 1.445613 2.875594 -4.165024 3.666015 2.140851 0.025987 -0.08772 -0.040652 
0.026105 0.588852 0.022564 2.98597 -1.604468 -3.114441 -1.060174 -0.374139 0.450144 0.080311 0.628544 1.570613 0.065818 2.271529 6.490518 -0.923134 -0.006648 0.051851 0.007811 -0.09002 -0.009399 -0.242406 -1.092208 -22.453894 10.847704 -18.969555 -72.350601 3.009892 -21.339565 -1.627088 0.046558 0.056879 -0.092697 0.923028 -2.012771 12.861359 -22.016159 3.566317 49.070457 -32.037861 81.071991 -8.90295 -0.074619 -0.078012 -0.030076 -0.162625 -3.672346 2.46551 0.813562 -2.620623 -1.71445 -2.231409 0.844473 0.215208 -0.054057 0.130271 0.084639 2.968943 0.559711 -3.674592 1.263774 1.53315 2.850388 -4.145666 3.63105 2.123335 0.025009 -0.084623 -0.038021 
